<?xml version="1.0" encoding="UTF-8"?>
<svg version="1.1" baseProfile="tiny" xmlns="http://www.w3.org/2000/svg" width="600" height="600">
<rect shape-rendering="optimizeSpeed"  x="0" y="0" width="600" height="600" fill="white" />
<rect shape-rendering="optimizeSpeed"  x="24" y="24" width="19" height="19" fill="black" />
<rect shape-rendering="optimizeSpeed"  x="43" y="24" width="19" height="19" fill="black" />
<rect shape-rendering="optimizeSpeed"  x="62" y="24" width="19" height="19" fill="black" />
<rect shape-rendering="optimizeSpeed"  x="81" y="24" width="19" height="19" fill="black" />
<rect shape-rendering="optimizeSpeed"  x="100" y="24" width="19" height="19" fill="black" />
<rect shape-rendering="optimizeSpeed"  x="119" y="24" width="19" height="19" fill="black" />
<rect shape-rendering="optimizeSpeed"  x="138" y="24" width="19" height="19" fill="black" />
<rect shape-rendering="optimizeSpeed"  x="176" y="24" width="19" height="19" fill="black" />
<rect shape-rendering="optimizeSpeed"  x="195" y="24" width="19" height="19" fill="black" />
<rect shape-rendering="optimizeSpeed"  x="252" y="24" width="19" height="19" fill="black" />
<rect shape-rendering="optimizeSpeed"  x="290" y="24" width="19" height="19" fill="black" />
<rect shape-rendering="optimizeSpeed"  x="366" y="24" width="19" height="19" fill="black" />
<rect shape-rendering="optimizeSpeed"  x="442" y="24" width="19" height="19" fill="black" />
<rect shape-rendering="optimizeSpeed"  x="461" y="24" width="19" height="19" fill="black" />
<rect shape-rendering="optimizeSpeed"  x="480" y="24" width="19" height="19" fill="black" />
<rect shape-rendering="optimizeSpeed"  x="499" y="24" width="19" height="19" fill="black" />
<rect shape-rendering="optimizeSpeed"  x="518" y="24" width="19" height="19" fill="black" />
<rect shape-rendering="optimizeSpeed"  x="537" y="24" width="19" height="19" fill="black" />
<rect shape-rendering="optimizeSpeed"  x="556" y="24" width="19" height="19" fill="black" />
<rect shape-rendering="optimizeSpeed"  x="24" y="43" width="19" height="19" fill="black" />
<rect shape-rendering="optimizeSpeed"  x="138" y="43" width="19" height="19" fill="black" />
<rect shape-rendering="optimizeSpeed"  x="271" y="43" width="19" height="19" fill="black" />
<rect shape-rendering="optimizeSpeed"  x="290" y="43" width="19" height="19" fill="black" />
<rect shape-rendering="optimizeSpeed"  x="328" y="43" width="19" height="19" fill="black" />
<rect shape-rendering="optimizeSpeed"  x="347" y="43" width="19" height="19" fill="black" />
<rect shape-rendering="optimizeSpeed"  x="366" y="43" width="19" height="19" fill="black" />
<rect shape-rendering="optimizeSpeed"  x="385" y="43" width="19" height="19" fill="black" />
<rect shape-rendering="optimizeSpeed"  x="442" y="43" width="19" height="19" fill="black" />
<rect shape-rendering="optimizeSpeed"  x="556" y="43" width="19" height="19" fill="black" />
<rect shape-rendering="optimizeSpeed"  x="24" y="62" width="19" height="19" fill="black" />
<rect shape-rendering="optimizeSpeed"  x="62" y="62" width="19" height="19" fill="black" />
<rect shape-rendering="optimizeSpeed"  x="81" y="62" width="19" height="19" fill="black" />
<rect shape-rendering="optimizeSpeed"  x="100" y="62" width="19" height="19" fill="black" />
<rect shape-rendering="optimizeSpeed"  x="138" y="62" width="19" height="19" fill="black" />
<rect shape-rendering="optimizeSpeed"  x="195" y="62" width="19" height="19" fill="black" />
<rect shape-rendering="optimizeSpeed"  x="252" y="62" width="19" height="19" fill="black" />
<rect shape-rendering="optimizeSpeed"  x="271" y="62" width="19" height="19" fill="black" />
<rect shape-rendering="optimizeSpeed"  x="290" y="62" width="19" height="19" fill="black" />
<rect shape-rendering="optimizeSpeed"  x="309" y="62" width="19" height="19" fill="black" />
<rect shape-rendering="optimizeSpeed"  x="385" y="62" width="19" height="19" fill="black" />
<rect shape-rendering="optimizeSpeed"  x="442" y="62" width="19" height="19" fill="black" />
<rect shape-rendering="optimizeSpeed"  x="480" y="62" width="19" height="19" fill="black" />
<rect shape-rendering="optimizeSpeed"  x="499" y="62" width="19" height="19" fill="black" />
<rect shape-rendering="optimizeSpeed"  x="518" y="62" width="19" height="19" fill="black" />
<rect shape-rendering="optimizeSpeed"  x="556" y="62" width="19" height="19" fill="black" />
<rect shape-rendering="optimizeSpeed"  x="24" y="81" width="19" height="19" fill="black" />
<rect shape-rendering="optimizeSpeed"  x="62" y="81" width="19" height="19" fill="black" />
<rect shape-rendering="optimizeSpeed"  x="81" y="81" width="19" height="19" fill="black" />
<rect shape-rendering="optimizeSpeed"  x="100" y="81" width="19" height="19" fill="black" />
<rect shape-rendering="optimizeSpeed"  x="138" y="81" width="19" height="19" fill="black" />
<rect shape-rendering="optimizeSpeed"  x="195" y="81" width="19" height="19" fill="black" />
<rect shape-rendering="optimizeSpeed"  x="214" y="81" width="19" height="19" fill="black" />
<rect shape-rendering="optimizeSpeed"  x="252" y="81" width="19" height="19" fill="black" />
<rect shape-rendering="optimizeSpeed"  x="271" y="81" width="19" height="19" fill="black" />
<rect shape-rendering="optimizeSpeed"  x="309" y="81" width="19" height="19" fill="black" />
<rect shape-rendering="optimizeSpeed"  x="328" y="81" width="19" height="19" fill="black" />
<rect shape-rendering="optimizeSpeed"  x="347" y="81" width="19" height="19" fill="black" />
<rect shape-rendering="optimizeSpeed"  x="404" y="81" width="19" height="19" fill="black" />
<rect shape-rendering="optimizeSpeed"  x="442" y="81" width="19" height="19" fill="black" />
<rect shape-rendering="optimizeSpeed"  x="480" y="81" width="19" height="19" fill="black" />
<rect shape-rendering="optimizeSpeed"  x="499" y="81" width="19" height="19" fill="black" />
<rect shape-rendering="optimizeSpeed"  x="518" y="81" width="19" height="19" fill="black" />
<rect shape-rendering="optimizeSpeed"  x="556" y="81" width="19" height="19" fill="black" />
<rect shape-rendering="optimizeSpeed"  x="24" y="100" width="19" height="19" fill="black" />
<rect shape-rendering="optimizeSpeed"  x="62" y="100" width="19" height="19" fill="black" />
<rect shape-rendering="optimizeSpeed"  x="81" y="100" width="19" height="19" fill="black" />
<rect shape-rendering="optimizeSpeed"  x="100" y="100" width="19" height="19" fill="black" />
<rect shape-rendering="optimizeSpeed"  x="138" y="100" width="19" height="19" fill="black" />
<rect shape-rendering="optimizeSpeed"  x="195" y="100" width="19" height="19" fill="black" />
<rect shape-rendering="optimizeSpeed"  x="214" y="100" width="19" height="19" fill="black" />
<rect shape-rendering="optimizeSpeed"  x="290" y="100" width="19" height="19" fill="black" />
<rect shape-rendering="optimizeSpeed"  x="328" y="100" width="19" height="19" fill="black" />
<rect shape-rendering="optimizeSpeed"  x="366" y="100" width="19" height="19" fill="black" />
<rect shape-rendering="optimizeSpeed"  x="385" y="100" width="19" height="19" fill="black" />
<rect shape-rendering="optimizeSpeed"  x="442" y="100" width="19" height="19" fill="black" />
<rect shape-rendering="optimizeSpeed"  x="480" y="100" width="19" height="19" fill="black" />
<rect shape-rendering="optimizeSpeed"  x="499" y="100" width="19" height="19" fill="black" />
<rect shape-rendering="optimizeSpeed"  x="518" y="100" width="19" height="19" fill="black" />
<rect shape-rendering="optimizeSpeed"  x="556" y="100" width="19" height="19" fill="black" />
<rect shape-rendering="optimizeSpeed"  x="24" y="119" width="19" height="19" fill="black" />
<rect shape-rendering="optimizeSpeed"  x="138" y="119" width="19" height="19" fill="black" />
<rect shape-rendering="optimizeSpeed"  x="214" y="119" width="19" height="19" fill="black" />
<rect shape-rendering="optimizeSpeed"  x="233" y="119" width="19" height="19" fill="black" />
<rect shape-rendering="optimizeSpeed"  x="252" y="119" width="19" height="19" fill="black" />
<rect shape-rendering="optimizeSpeed"  x="271" y="119" width="19" height="19" fill="black" />
<rect shape-rendering="optimizeSpeed"  x="290" y="119" width="19" height="19" fill="black" />
<rect shape-rendering="optimizeSpeed"  x="347" y="119" width="19" height="19" fill="black" />
<rect shape-rendering="optimizeSpeed"  x="366" y="119" width="19" height="19" fill="black" />
<rect shape-rendering="optimizeSpeed"  x="404" y="119" width="19" height="19" fill="black" />
<rect shape-rendering="optimizeSpeed"  x="442" y="119" width="19" height="19" fill="black" />
<rect shape-rendering="optimizeSpeed"  x="556" y="119" width="19" height="19" fill="black" />
<rect shape-rendering="optimizeSpeed"  x="24" y="138" width="19" height="19" fill="black" />
<rect shape-rendering="optimizeSpeed"  x="43" y="138" width="19" height="19" fill="black" />
<rect shape-rendering="optimizeSpeed"  x="62" y="138" width="19" height="19" fill="black" />
<rect shape-rendering="optimizeSpeed"  x="81" y="138" width="19" height="19" fill="black" />
<rect shape-rendering="optimizeSpeed"  x="100" y="138" width="19" height="19" fill="black" />
<rect shape-rendering="optimizeSpeed"  x="119" y="138" width="19" height="19" fill="black" />
<rect shape-rendering="optimizeSpeed"  x="138" y="138" width="19" height="19" fill="black" />
<rect shape-rendering="optimizeSpeed"  x="176" y="138" width="19" height="19" fill="black" />
<rect shape-rendering="optimizeSpeed"  x="214" y="138" width="19" height="19" fill="black" />
<rect shape-rendering="optimizeSpeed"  x="252" y="138" width="19" height="19" fill="black" />
<rect shape-rendering="optimizeSpeed"  x="290" y="138" width="19" height="19" fill="black" />
<rect shape-rendering="optimizeSpeed"  x="328" y="138" width="19" height="19" fill="black" />
<rect shape-rendering="optimizeSpeed"  x="366" y="138" width="19" height="19" fill="black" />
<rect shape-rendering="optimizeSpeed"  x="404" y="138" width="19" height="19" fill="black" />
<rect shape-rendering="optimizeSpeed"  x="442" y="138" width="19" height="19" fill="black" />
<rect shape-rendering="optimizeSpeed"  x="461" y="138" width="19" height="19" fill="black" />
<rect shape-rendering="optimizeSpeed"  x="480" y="138" width="19" height="19" fill="black" />
<rect shape-rendering="optimizeSpeed"  x="499" y="138" width="19" height="19" fill="black" />
<rect shape-rendering="optimizeSpeed"  x="518" y="138" width="19" height="19" fill="black" />
<rect shape-rendering="optimizeSpeed"  x="537" y="138" width="19" height="19" fill="black" />
<rect shape-rendering="optimizeSpeed"  x="556" y="138" width="19" height="19" fill="black" />
<rect shape-rendering="optimizeSpeed"  x="176" y="157" width="19" height="19" fill="black" />
<rect shape-rendering="optimizeSpeed"  x="214" y="157" width="19" height="19" fill="black" />
<rect shape-rendering="optimizeSpeed"  x="233" y="157" width="19" height="19" fill="black" />
<rect shape-rendering="optimizeSpeed"  x="271" y="157" width="19" height="19" fill="black" />
<rect shape-rendering="optimizeSpeed"  x="328" y="157" width="19" height="19" fill="black" />
<rect shape-rendering="optimizeSpeed"  x="366" y="157" width="19" height="19" fill="black" />
<rect shape-rendering="optimizeSpeed"  x="404" y="157" width="19" height="19" fill="black" />
<rect shape-rendering="optimizeSpeed"  x="24" y="176" width="19" height="19" fill="black" />
<rect shape-rendering="optimizeSpeed"  x="43" y="176" width="19" height="19" fill="black" />
<rect shape-rendering="optimizeSpeed"  x="81" y="176" width="19" height="19" fill="black" />
<rect shape-rendering="optimizeSpeed"  x="100" y="176" width="19" height="19" fill="black" />
<rect shape-rendering="optimizeSpeed"  x="138" y="176" width="19" height="19" fill="black" />
<rect shape-rendering="optimizeSpeed"  x="195" y="176" width="19" height="19" fill="black" />
<rect shape-rendering="optimizeSpeed"  x="214" y="176" width="19" height="19" fill="black" />
<rect shape-rendering="optimizeSpeed"  x="290" y="176" width="19" height="19" fill="black" />
<rect shape-rendering="optimizeSpeed"  x="328" y="176" width="19" height="19" fill="black" />
<rect shape-rendering="optimizeSpeed"  x="347" y="176" width="19" height="19" fill="black" />
<rect shape-rendering="optimizeSpeed"  x="385" y="176" width="19" height="19" fill="black" />
<rect shape-rendering="optimizeSpeed"  x="404" y="176" width="19" height="19" fill="black" />
<rect shape-rendering="optimizeSpeed"  x="442" y="176" width="19" height="19" fill="black" />
<rect shape-rendering="optimizeSpeed"  x="556" y="176" width="19" height="19" fill="black" />
<rect shape-rendering="optimizeSpeed"  x="24" y="195" width="19" height="19" fill="black" />
<rect shape-rendering="optimizeSpeed"  x="43" y="195" width="19" height="19" fill="black" />
<rect shape-rendering="optimizeSpeed"  x="62" y="195" width="19" height="19" fill="black" />
<rect shape-rendering="optimizeSpeed"  x="176" y="195" width="19" height="19" fill="black" />
<rect shape-rendering="optimizeSpeed"  x="195" y="195" width="19" height="19" fill="black" />
<rect shape-rendering="optimizeSpeed"  x="214" y="195" width="19" height="19" fill="black" />
<rect shape-rendering="optimizeSpeed"  x="233" y="195" width="19" height="19" fill="black" />
<rect shape-rendering="optimizeSpeed"  x="309" y="195" width="19" height="19" fill="black" />
<rect shape-rendering="optimizeSpeed"  x="328" y="195" width="19" height="19" fill="black" />
<rect shape-rendering="optimizeSpeed"  x="347" y="195" width="19" height="19" fill="black" />
<rect shape-rendering="optimizeSpeed"  x="366" y="195" width="19" height="19" fill="black" />
<rect shape-rendering="optimizeSpeed"  x="423" y="195" width="19" height="19" fill="black" />
<rect shape-rendering="optimizeSpeed"  x="461" y="195" width="19" height="19" fill="black" />
<rect shape-rendering="optimizeSpeed"  x="480" y="195" width="19" height="19" fill="black" />
<rect shape-rendering="optimizeSpeed"  x="518" y="195" width="19" height="19" fill="black" />
<rect shape-rendering="optimizeSpeed"  x="537" y="195" width="19" height="19" fill="black" />
<rect shape-rendering="optimizeSpeed"  x="24" y="214" width="19" height="19" fill="black" />
<rect shape-rendering="optimizeSpeed"  x="119" y="214" width="19" height="19" fill="black" />
<rect shape-rendering="optimizeSpeed"  x="138" y="214" width="19" height="19" fill="black" />
<rect shape-rendering="optimizeSpeed"  x="176" y="214" width="19" height="19" fill="black" />
<rect shape-rendering="optimizeSpeed"  x="214" y="214" width="19" height="19" fill="black" />
<rect shape-rendering="optimizeSpeed"  x="233" y="214" width="19" height="19" fill="black" />
<rect shape-rendering="optimizeSpeed"  x="271" y="214" width="19" height="19" fill="black" />
<rect shape-rendering="optimizeSpeed"  x="290" y="214" width="19" height="19" fill="black" />
<rect shape-rendering="optimizeSpeed"  x="309" y="214" width="19" height="19" fill="black" />
<rect shape-rendering="optimizeSpeed"  x="461" y="214" width="19" height="19" fill="black" />
<rect shape-rendering="optimizeSpeed"  x="480" y="214" width="19" height="19" fill="black" />
<rect shape-rendering="optimizeSpeed"  x="518" y="214" width="19" height="19" fill="black" />
<rect shape-rendering="optimizeSpeed"  x="24" y="233" width="19" height="19" fill="black" />
<rect shape-rendering="optimizeSpeed"  x="62" y="233" width="19" height="19" fill="black" />
<rect shape-rendering="optimizeSpeed"  x="157" y="233" width="19" height="19" fill="black" />
<rect shape-rendering="optimizeSpeed"  x="176" y="233" width="19" height="19" fill="black" />
<rect shape-rendering="optimizeSpeed"  x="195" y="233" width="19" height="19" fill="black" />
<rect shape-rendering="optimizeSpeed"  x="214" y="233" width="19" height="19" fill="black" />
<rect shape-rendering="optimizeSpeed"  x="233" y="233" width="19" height="19" fill="black" />
<rect shape-rendering="optimizeSpeed"  x="252" y="233" width="19" height="19" fill="black" />
<rect shape-rendering="optimizeSpeed"  x="347" y="233" width="19" height="19" fill="black" />
<rect shape-rendering="optimizeSpeed"  x="366" y="233" width="19" height="19" fill="black" />
<rect shape-rendering="optimizeSpeed"  x="423" y="233" width="19" height="19" fill="black" />
<rect shape-rendering="optimizeSpeed"  x="442" y="233" width="19" height="19" fill="black" />
<rect shape-rendering="optimizeSpeed"  x="461" y="233" width="19" height="19" fill="black" />
<rect shape-rendering="optimizeSpeed"  x="499" y="233" width="19" height="19" fill="black" />
<rect shape-rendering="optimizeSpeed"  x="556" y="233" width="19" height="19" fill="black" />
<rect shape-rendering="optimizeSpeed"  x="81" y="252" width="19" height="19" fill="black" />
<rect shape-rendering="optimizeSpeed"  x="119" y="252" width="19" height="19" fill="black" />
<rect shape-rendering="optimizeSpeed"  x="138" y="252" width="19" height="19" fill="black" />
<rect shape-rendering="optimizeSpeed"  x="176" y="252" width="19" height="19" fill="black" />
<rect shape-rendering="optimizeSpeed"  x="195" y="252" width="19" height="19" fill="black" />
<rect shape-rendering="optimizeSpeed"  x="233" y="252" width="19" height="19" fill="black" />
<rect shape-rendering="optimizeSpeed"  x="252" y="252" width="19" height="19" fill="black" />
<rect shape-rendering="optimizeSpeed"  x="309" y="252" width="19" height="19" fill="black" />
<rect shape-rendering="optimizeSpeed"  x="442" y="252" width="19" height="19" fill="black" />
<rect shape-rendering="optimizeSpeed"  x="461" y="252" width="19" height="19" fill="black" />
<rect shape-rendering="optimizeSpeed"  x="556" y="252" width="19" height="19" fill="black" />
<rect shape-rendering="optimizeSpeed"  x="81" y="271" width="19" height="19" fill="black" />
<rect shape-rendering="optimizeSpeed"  x="100" y="271" width="19" height="19" fill="black" />
<rect shape-rendering="optimizeSpeed"  x="157" y="271" width="19" height="19" fill="black" />
<rect shape-rendering="optimizeSpeed"  x="176" y="271" width="19" height="19" fill="black" />
<rect shape-rendering="optimizeSpeed"  x="195" y="271" width="19" height="19" fill="black" />
<rect shape-rendering="optimizeSpeed"  x="233" y="271" width="19" height="19" fill="black" />
<rect shape-rendering="optimizeSpeed"  x="271" y="271" width="19" height="19" fill="black" />
<rect shape-rendering="optimizeSpeed"  x="290" y="271" width="19" height="19" fill="black" />
<rect shape-rendering="optimizeSpeed"  x="309" y="271" width="19" height="19" fill="black" />
<rect shape-rendering="optimizeSpeed"  x="328" y="271" width="19" height="19" fill="black" />
<rect shape-rendering="optimizeSpeed"  x="347" y="271" width="19" height="19" fill="black" />
<rect shape-rendering="optimizeSpeed"  x="366" y="271" width="19" height="19" fill="black" />
<rect shape-rendering="optimizeSpeed"  x="385" y="271" width="19" height="19" fill="black" />
<rect shape-rendering="optimizeSpeed"  x="442" y="271" width="19" height="19" fill="black" />
<rect shape-rendering="optimizeSpeed"  x="461" y="271" width="19" height="19" fill="black" />
<rect shape-rendering="optimizeSpeed"  x="480" y="271" width="19" height="19" fill="black" />
<rect shape-rendering="optimizeSpeed"  x="499" y="271" width="19" height="19" fill="black" />
<rect shape-rendering="optimizeSpeed"  x="518" y="271" width="19" height="19" fill="black" />
<rect shape-rendering="optimizeSpeed"  x="537" y="271" width="19" height="19" fill="black" />
<rect shape-rendering="optimizeSpeed"  x="556" y="271" width="19" height="19" fill="black" />
<rect shape-rendering="optimizeSpeed"  x="43" y="290" width="19" height="19" fill="black" />
<rect shape-rendering="optimizeSpeed"  x="81" y="290" width="19" height="19" fill="black" />
<rect shape-rendering="optimizeSpeed"  x="119" y="290" width="19" height="19" fill="black" />
<rect shape-rendering="optimizeSpeed"  x="138" y="290" width="19" height="19" fill="black" />
<rect shape-rendering="optimizeSpeed"  x="176" y="290" width="19" height="19" fill="black" />
<rect shape-rendering="optimizeSpeed"  x="195" y="290" width="19" height="19" fill="black" />
<rect shape-rendering="optimizeSpeed"  x="252" y="290" width="19" height="19" fill="black" />
<rect shape-rendering="optimizeSpeed"  x="271" y="290" width="19" height="19" fill="black" />
<rect shape-rendering="optimizeSpeed"  x="309" y="290" width="19" height="19" fill="black" />
<rect shape-rendering="optimizeSpeed"  x="328" y="290" width="19" height="19" fill="black" />
<rect shape-rendering="optimizeSpeed"  x="347" y="290" width="19" height="19" fill="black" />
<rect shape-rendering="optimizeSpeed"  x="385" y="290" width="19" height="19" fill="black" />
<rect shape-rendering="optimizeSpeed"  x="404" y="290" width="19" height="19" fill="black" />
<rect shape-rendering="optimizeSpeed"  x="423" y="290" width="19" height="19" fill="black" />
<rect shape-rendering="optimizeSpeed"  x="442" y="290" width="19" height="19" fill="black" />
<rect shape-rendering="optimizeSpeed"  x="480" y="290" width="19" height="19" fill="black" />
<rect shape-rendering="optimizeSpeed"  x="518" y="290" width="19" height="19" fill="black" />
<rect shape-rendering="optimizeSpeed"  x="556" y="290" width="19" height="19" fill="black" />
<rect shape-rendering="optimizeSpeed"  x="43" y="309" width="19" height="19" fill="black" />
<rect shape-rendering="optimizeSpeed"  x="81" y="309" width="19" height="19" fill="black" />
<rect shape-rendering="optimizeSpeed"  x="195" y="309" width="19" height="19" fill="black" />
<rect shape-rendering="optimizeSpeed"  x="233" y="309" width="19" height="19" fill="black" />
<rect shape-rendering="optimizeSpeed"  x="252" y="309" width="19" height="19" fill="black" />
<rect shape-rendering="optimizeSpeed"  x="309" y="309" width="19" height="19" fill="black" />
<rect shape-rendering="optimizeSpeed"  x="385" y="309" width="19" height="19" fill="black" />
<rect shape-rendering="optimizeSpeed"  x="461" y="309" width="19" height="19" fill="black" />
<rect shape-rendering="optimizeSpeed"  x="480" y="309" width="19" height="19" fill="black" />
<rect shape-rendering="optimizeSpeed"  x="518" y="309" width="19" height="19" fill="black" />
<rect shape-rendering="optimizeSpeed"  x="556" y="309" width="19" height="19" fill="black" />
<rect shape-rendering="optimizeSpeed"  x="24" y="328" width="19" height="19" fill="black" />
<rect shape-rendering="optimizeSpeed"  x="43" y="328" width="19" height="19" fill="black" />
<rect shape-rendering="optimizeSpeed"  x="81" y="328" width="19" height="19" fill="black" />
<rect shape-rendering="optimizeSpeed"  x="138" y="328" width="19" height="19" fill="black" />
<rect shape-rendering="optimizeSpeed"  x="176" y="328" width="19" height="19" fill="black" />
<rect shape-rendering="optimizeSpeed"  x="214" y="328" width="19" height="19" fill="black" />
<rect shape-rendering="optimizeSpeed"  x="252" y="328" width="19" height="19" fill="black" />
<rect shape-rendering="optimizeSpeed"  x="271" y="328" width="19" height="19" fill="black" />
<rect shape-rendering="optimizeSpeed"  x="366" y="328" width="19" height="19" fill="black" />
<rect shape-rendering="optimizeSpeed"  x="385" y="328" width="19" height="19" fill="black" />
<rect shape-rendering="optimizeSpeed"  x="404" y="328" width="19" height="19" fill="black" />
<rect shape-rendering="optimizeSpeed"  x="423" y="328" width="19" height="19" fill="black" />
<rect shape-rendering="optimizeSpeed"  x="499" y="328" width="19" height="19" fill="black" />
<rect shape-rendering="optimizeSpeed"  x="24" y="347" width="19" height="19" fill="black" />
<rect shape-rendering="optimizeSpeed"  x="43" y="347" width="19" height="19" fill="black" />
<rect shape-rendering="optimizeSpeed"  x="62" y="347" width="19" height="19" fill="black" />
<rect shape-rendering="optimizeSpeed"  x="81" y="347" width="19" height="19" fill="black" />
<rect shape-rendering="optimizeSpeed"  x="119" y="347" width="19" height="19" fill="black" />
<rect shape-rendering="optimizeSpeed"  x="157" y="347" width="19" height="19" fill="black" />
<rect shape-rendering="optimizeSpeed"  x="176" y="347" width="19" height="19" fill="black" />
<rect shape-rendering="optimizeSpeed"  x="195" y="347" width="19" height="19" fill="black" />
<rect shape-rendering="optimizeSpeed"  x="214" y="347" width="19" height="19" fill="black" />
<rect shape-rendering="optimizeSpeed"  x="290" y="347" width="19" height="19" fill="black" />
<rect shape-rendering="optimizeSpeed"  x="309" y="347" width="19" height="19" fill="black" />
<rect shape-rendering="optimizeSpeed"  x="366" y="347" width="19" height="19" fill="black" />
<rect shape-rendering="optimizeSpeed"  x="385" y="347" width="19" height="19" fill="black" />
<rect shape-rendering="optimizeSpeed"  x="480" y="347" width="19" height="19" fill="black" />
<rect shape-rendering="optimizeSpeed"  x="518" y="347" width="19" height="19" fill="black" />
<rect shape-rendering="optimizeSpeed"  x="537" y="347" width="19" height="19" fill="black" />
<rect shape-rendering="optimizeSpeed"  x="24" y="366" width="19" height="19" fill="black" />
<rect shape-rendering="optimizeSpeed"  x="43" y="366" width="19" height="19" fill="black" />
<rect shape-rendering="optimizeSpeed"  x="62" y="366" width="19" height="19" fill="black" />
<rect shape-rendering="optimizeSpeed"  x="81" y="366" width="19" height="19" fill="black" />
<rect shape-rendering="optimizeSpeed"  x="100" y="366" width="19" height="19" fill="black" />
<rect shape-rendering="optimizeSpeed"  x="119" y="366" width="19" height="19" fill="black" />
<rect shape-rendering="optimizeSpeed"  x="138" y="366" width="19" height="19" fill="black" />
<rect shape-rendering="optimizeSpeed"  x="176" y="366" width="19" height="19" fill="black" />
<rect shape-rendering="optimizeSpeed"  x="195" y="366" width="19" height="19" fill="black" />
<rect shape-rendering="optimizeSpeed"  x="233" y="366" width="19" height="19" fill="black" />
<rect shape-rendering="optimizeSpeed"  x="271" y="366" width="19" height="19" fill="black" />
<rect shape-rendering="optimizeSpeed"  x="309" y="366" width="19" height="19" fill="black" />
<rect shape-rendering="optimizeSpeed"  x="385" y="366" width="19" height="19" fill="black" />
<rect shape-rendering="optimizeSpeed"  x="480" y="366" width="19" height="19" fill="black" />
<rect shape-rendering="optimizeSpeed"  x="499" y="366" width="19" height="19" fill="black" />
<rect shape-rendering="optimizeSpeed"  x="556" y="366" width="19" height="19" fill="black" />
<rect shape-rendering="optimizeSpeed"  x="24" y="385" width="19" height="19" fill="black" />
<rect shape-rendering="optimizeSpeed"  x="43" y="385" width="19" height="19" fill="black" />
<rect shape-rendering="optimizeSpeed"  x="62" y="385" width="19" height="19" fill="black" />
<rect shape-rendering="optimizeSpeed"  x="119" y="385" width="19" height="19" fill="black" />
<rect shape-rendering="optimizeSpeed"  x="195" y="385" width="19" height="19" fill="black" />
<rect shape-rendering="optimizeSpeed"  x="271" y="385" width="19" height="19" fill="black" />
<rect shape-rendering="optimizeSpeed"  x="290" y="385" width="19" height="19" fill="black" />
<rect shape-rendering="optimizeSpeed"  x="328" y="385" width="19" height="19" fill="black" />
<rect shape-rendering="optimizeSpeed"  x="385" y="385" width="19" height="19" fill="black" />
<rect shape-rendering="optimizeSpeed"  x="442" y="385" width="19" height="19" fill="black" />
<rect shape-rendering="optimizeSpeed"  x="499" y="385" width="19" height="19" fill="black" />
<rect shape-rendering="optimizeSpeed"  x="518" y="385" width="19" height="19" fill="black" />
<rect shape-rendering="optimizeSpeed"  x="24" y="404" width="19" height="19" fill="black" />
<rect shape-rendering="optimizeSpeed"  x="43" y="404" width="19" height="19" fill="black" />
<rect shape-rendering="optimizeSpeed"  x="81" y="404" width="19" height="19" fill="black" />
<rect shape-rendering="optimizeSpeed"  x="119" y="404" width="19" height="19" fill="black" />
<rect shape-rendering="optimizeSpeed"  x="138" y="404" width="19" height="19" fill="black" />
<rect shape-rendering="optimizeSpeed"  x="157" y="404" width="19" height="19" fill="black" />
<rect shape-rendering="optimizeSpeed"  x="195" y="404" width="19" height="19" fill="black" />
<rect shape-rendering="optimizeSpeed"  x="214" y="404" width="19" height="19" fill="black" />
<rect shape-rendering="optimizeSpeed"  x="233" y="404" width="19" height="19" fill="black" />
<rect shape-rendering="optimizeSpeed"  x="252" y="404" width="19" height="19" fill="black" />
<rect shape-rendering="optimizeSpeed"  x="290" y="404" width="19" height="19" fill="black" />
<rect shape-rendering="optimizeSpeed"  x="309" y="404" width="19" height="19" fill="black" />
<rect shape-rendering="optimizeSpeed"  x="328" y="404" width="19" height="19" fill="black" />
<rect shape-rendering="optimizeSpeed"  x="347" y="404" width="19" height="19" fill="black" />
<rect shape-rendering="optimizeSpeed"  x="404" y="404" width="19" height="19" fill="black" />
<rect shape-rendering="optimizeSpeed"  x="423" y="404" width="19" height="19" fill="black" />
<rect shape-rendering="optimizeSpeed"  x="442" y="404" width="19" height="19" fill="black" />
<rect shape-rendering="optimizeSpeed"  x="461" y="404" width="19" height="19" fill="black" />
<rect shape-rendering="optimizeSpeed"  x="480" y="404" width="19" height="19" fill="black" />
<rect shape-rendering="optimizeSpeed"  x="499" y="404" width="19" height="19" fill="black" />
<rect shape-rendering="optimizeSpeed"  x="518" y="404" width="19" height="19" fill="black" />
<rect shape-rendering="optimizeSpeed"  x="537" y="404" width="19" height="19" fill="black" />
<rect shape-rendering="optimizeSpeed"  x="176" y="423" width="19" height="19" fill="black" />
<rect shape-rendering="optimizeSpeed"  x="233" y="423" width="19" height="19" fill="black" />
<rect shape-rendering="optimizeSpeed"  x="252" y="423" width="19" height="19" fill="black" />
<rect shape-rendering="optimizeSpeed"  x="290" y="423" width="19" height="19" fill="black" />
<rect shape-rendering="optimizeSpeed"  x="309" y="423" width="19" height="19" fill="black" />
<rect shape-rendering="optimizeSpeed"  x="404" y="423" width="19" height="19" fill="black" />
<rect shape-rendering="optimizeSpeed"  x="480" y="423" width="19" height="19" fill="black" />
<rect shape-rendering="optimizeSpeed"  x="499" y="423" width="19" height="19" fill="black" />
<rect shape-rendering="optimizeSpeed"  x="24" y="442" width="19" height="19" fill="black" />
<rect shape-rendering="optimizeSpeed"  x="43" y="442" width="19" height="19" fill="black" />
<rect shape-rendering="optimizeSpeed"  x="62" y="442" width="19" height="19" fill="black" />
<rect shape-rendering="optimizeSpeed"  x="81" y="442" width="19" height="19" fill="black" />
<rect shape-rendering="optimizeSpeed"  x="100" y="442" width="19" height="19" fill="black" />
<rect shape-rendering="optimizeSpeed"  x="119" y="442" width="19" height="19" fill="black" />
<rect shape-rendering="optimizeSpeed"  x="138" y="442" width="19" height="19" fill="black" />
<rect shape-rendering="optimizeSpeed"  x="233" y="442" width="19" height="19" fill="black" />
<rect shape-rendering="optimizeSpeed"  x="309" y="442" width="19" height="19" fill="black" />
<rect shape-rendering="optimizeSpeed"  x="328" y="442" width="19" height="19" fill="black" />
<rect shape-rendering="optimizeSpeed"  x="347" y="442" width="19" height="19" fill="black" />
<rect shape-rendering="optimizeSpeed"  x="366" y="442" width="19" height="19" fill="black" />
<rect shape-rendering="optimizeSpeed"  x="385" y="442" width="19" height="19" fill="black" />
<rect shape-rendering="optimizeSpeed"  x="404" y="442" width="19" height="19" fill="black" />
<rect shape-rendering="optimizeSpeed"  x="442" y="442" width="19" height="19" fill="black" />
<rect shape-rendering="optimizeSpeed"  x="480" y="442" width="19" height="19" fill="black" />
<rect shape-rendering="optimizeSpeed"  x="499" y="442" width="19" height="19" fill="black" />
<rect shape-rendering="optimizeSpeed"  x="24" y="461" width="19" height="19" fill="black" />
<rect shape-rendering="optimizeSpeed"  x="138" y="461" width="19" height="19" fill="black" />
<rect shape-rendering="optimizeSpeed"  x="195" y="461" width="19" height="19" fill="black" />
<rect shape-rendering="optimizeSpeed"  x="214" y="461" width="19" height="19" fill="black" />
<rect shape-rendering="optimizeSpeed"  x="290" y="461" width="19" height="19" fill="black" />
<rect shape-rendering="optimizeSpeed"  x="309" y="461" width="19" height="19" fill="black" />
<rect shape-rendering="optimizeSpeed"  x="328" y="461" width="19" height="19" fill="black" />
<rect shape-rendering="optimizeSpeed"  x="347" y="461" width="19" height="19" fill="black" />
<rect shape-rendering="optimizeSpeed"  x="366" y="461" width="19" height="19" fill="black" />
<rect shape-rendering="optimizeSpeed"  x="385" y="461" width="19" height="19" fill="black" />
<rect shape-rendering="optimizeSpeed"  x="404" y="461" width="19" height="19" fill="black" />
<rect shape-rendering="optimizeSpeed"  x="480" y="461" width="19" height="19" fill="black" />
<rect shape-rendering="optimizeSpeed"  x="556" y="461" width="19" height="19" fill="black" />
<rect shape-rendering="optimizeSpeed"  x="24" y="480" width="19" height="19" fill="black" />
<rect shape-rendering="optimizeSpeed"  x="62" y="480" width="19" height="19" fill="black" />
<rect shape-rendering="optimizeSpeed"  x="81" y="480" width="19" height="19" fill="black" />
<rect shape-rendering="optimizeSpeed"  x="100" y="480" width="19" height="19" fill="black" />
<rect shape-rendering="optimizeSpeed"  x="138" y="480" width="19" height="19" fill="black" />
<rect shape-rendering="optimizeSpeed"  x="176" y="480" width="19" height="19" fill="black" />
<rect shape-rendering="optimizeSpeed"  x="195" y="480" width="19" height="19" fill="black" />
<rect shape-rendering="optimizeSpeed"  x="252" y="480" width="19" height="19" fill="black" />
<rect shape-rendering="optimizeSpeed"  x="290" y="480" width="19" height="19" fill="black" />
<rect shape-rendering="optimizeSpeed"  x="309" y="480" width="19" height="19" fill="black" />
<rect shape-rendering="optimizeSpeed"  x="385" y="480" width="19" height="19" fill="black" />
<rect shape-rendering="optimizeSpeed"  x="404" y="480" width="19" height="19" fill="black" />
<rect shape-rendering="optimizeSpeed"  x="423" y="480" width="19" height="19" fill="black" />
<rect shape-rendering="optimizeSpeed"  x="442" y="480" width="19" height="19" fill="black" />
<rect shape-rendering="optimizeSpeed"  x="461" y="480" width="19" height="19" fill="black" />
<rect shape-rendering="optimizeSpeed"  x="480" y="480" width="19" height="19" fill="black" />
<rect shape-rendering="optimizeSpeed"  x="499" y="480" width="19" height="19" fill="black" />
<rect shape-rendering="optimizeSpeed"  x="556" y="480" width="19" height="19" fill="black" />
<rect shape-rendering="optimizeSpeed"  x="24" y="499" width="19" height="19" fill="black" />
<rect shape-rendering="optimizeSpeed"  x="62" y="499" width="19" height="19" fill="black" />
<rect shape-rendering="optimizeSpeed"  x="81" y="499" width="19" height="19" fill="black" />
<rect shape-rendering="optimizeSpeed"  x="100" y="499" width="19" height="19" fill="black" />
<rect shape-rendering="optimizeSpeed"  x="138" y="499" width="19" height="19" fill="black" />
<rect shape-rendering="optimizeSpeed"  x="176" y="499" width="19" height="19" fill="black" />
<rect shape-rendering="optimizeSpeed"  x="233" y="499" width="19" height="19" fill="black" />
<rect shape-rendering="optimizeSpeed"  x="290" y="499" width="19" height="19" fill="black" />
<rect shape-rendering="optimizeSpeed"  x="309" y="499" width="19" height="19" fill="black" />
<rect shape-rendering="optimizeSpeed"  x="328" y="499" width="19" height="19" fill="black" />
<rect shape-rendering="optimizeSpeed"  x="423" y="499" width="19" height="19" fill="black" />
<rect shape-rendering="optimizeSpeed"  x="537" y="499" width="19" height="19" fill="black" />
<rect shape-rendering="optimizeSpeed"  x="556" y="499" width="19" height="19" fill="black" />
<rect shape-rendering="optimizeSpeed"  x="24" y="518" width="19" height="19" fill="black" />
<rect shape-rendering="optimizeSpeed"  x="62" y="518" width="19" height="19" fill="black" />
<rect shape-rendering="optimizeSpeed"  x="81" y="518" width="19" height="19" fill="black" />
<rect shape-rendering="optimizeSpeed"  x="100" y="518" width="19" height="19" fill="black" />
<rect shape-rendering="optimizeSpeed"  x="138" y="518" width="19" height="19" fill="black" />
<rect shape-rendering="optimizeSpeed"  x="214" y="518" width="19" height="19" fill="black" />
<rect shape-rendering="optimizeSpeed"  x="252" y="518" width="19" height="19" fill="black" />
<rect shape-rendering="optimizeSpeed"  x="271" y="518" width="19" height="19" fill="black" />
<rect shape-rendering="optimizeSpeed"  x="290" y="518" width="19" height="19" fill="black" />
<rect shape-rendering="optimizeSpeed"  x="309" y="518" width="19" height="19" fill="black" />
<rect shape-rendering="optimizeSpeed"  x="347" y="518" width="19" height="19" fill="black" />
<rect shape-rendering="optimizeSpeed"  x="366" y="518" width="19" height="19" fill="black" />
<rect shape-rendering="optimizeSpeed"  x="404" y="518" width="19" height="19" fill="black" />
<rect shape-rendering="optimizeSpeed"  x="423" y="518" width="19" height="19" fill="black" />
<rect shape-rendering="optimizeSpeed"  x="461" y="518" width="19" height="19" fill="black" />
<rect shape-rendering="optimizeSpeed"  x="480" y="518" width="19" height="19" fill="black" />
<rect shape-rendering="optimizeSpeed"  x="518" y="518" width="19" height="19" fill="black" />
<rect shape-rendering="optimizeSpeed"  x="537" y="518" width="19" height="19" fill="black" />
<rect shape-rendering="optimizeSpeed"  x="556" y="518" width="19" height="19" fill="black" />
<rect shape-rendering="optimizeSpeed"  x="24" y="537" width="19" height="19" fill="black" />
<rect shape-rendering="optimizeSpeed"  x="138" y="537" width="19" height="19" fill="black" />
<rect shape-rendering="optimizeSpeed"  x="176" y="537" width="19" height="19" fill="black" />
<rect shape-rendering="optimizeSpeed"  x="214" y="537" width="19" height="19" fill="black" />
<rect shape-rendering="optimizeSpeed"  x="366" y="537" width="19" height="19" fill="black" />
<rect shape-rendering="optimizeSpeed"  x="442" y="537" width="19" height="19" fill="black" />
<rect shape-rendering="optimizeSpeed"  x="461" y="537" width="19" height="19" fill="black" />
<rect shape-rendering="optimizeSpeed"  x="499" y="537" width="19" height="19" fill="black" />
<rect shape-rendering="optimizeSpeed"  x="518" y="537" width="19" height="19" fill="black" />
<rect shape-rendering="optimizeSpeed"  x="556" y="537" width="19" height="19" fill="black" />
<rect shape-rendering="optimizeSpeed"  x="24" y="556" width="19" height="19" fill="black" />
<rect shape-rendering="optimizeSpeed"  x="43" y="556" width="19" height="19" fill="black" />
<rect shape-rendering="optimizeSpeed"  x="62" y="556" width="19" height="19" fill="black" />
<rect shape-rendering="optimizeSpeed"  x="81" y="556" width="19" height="19" fill="black" />
<rect shape-rendering="optimizeSpeed"  x="100" y="556" width="19" height="19" fill="black" />
<rect shape-rendering="optimizeSpeed"  x="119" y="556" width="19" height="19" fill="black" />
<rect shape-rendering="optimizeSpeed"  x="138" y="556" width="19" height="19" fill="black" />
<rect shape-rendering="optimizeSpeed"  x="176" y="556" width="19" height="19" fill="black" />
<rect shape-rendering="optimizeSpeed"  x="195" y="556" width="19" height="19" fill="black" />
<rect shape-rendering="optimizeSpeed"  x="214" y="556" width="19" height="19" fill="black" />
<rect shape-rendering="optimizeSpeed"  x="233" y="556" width="19" height="19" fill="black" />
<rect shape-rendering="optimizeSpeed"  x="271" y="556" width="19" height="19" fill="black" />
<rect shape-rendering="optimizeSpeed"  x="309" y="556" width="19" height="19" fill="black" />
<rect shape-rendering="optimizeSpeed"  x="385" y="556" width="19" height="19" fill="black" />
<rect shape-rendering="optimizeSpeed"  x="404" y="556" width="19" height="19" fill="black" />
<rect shape-rendering="optimizeSpeed"  x="442" y="556" width="19" height="19" fill="black" />
<rect shape-rendering="optimizeSpeed"  x="480" y="556" width="19" height="19" fill="black" /></svg>